<svg xmlns="http://www.w3.org/2000/svg" viewBox="0 0 128 128" role="img" aria-label="From BBS">
	<rect width="128" height="128" rx="28" fill="#e8f0ee" />
	<path
		d="M32 76c-9 0-16-7-16-16 0-8 6-15 14-16 3-12 14-20 27-20 11 0 21 6 26 15 2-1 5-2 8-2 12 0 21 9 21 21s-9 21-21 21H32Z"
		fill="#fffaf2"
		stroke="#24211d"
		stroke-width="5"
		stroke-linejoin="round"
	/>
	<path
		d="M74 28c10-10 22-11 30-5-1 11-10 19-22 19"
		fill="#8ca68b"
		stroke="#24211d"
		stroke-width="5"
		stroke-linecap="round"
		stroke-linejoin="round"
	/>
	<path d="M86 38c-8 4-14 10-18 18" fill="none" stroke="#24211d" stroke-width="5" stroke-linecap="round" />
	<circle cx="48" cy="60" r="4.5" fill="#24211d" />
	<circle cx="78" cy="60" r="4.5" fill="#24211d" />
	<path d="M57 70c4 4 10 4 14 0" fill="none" stroke="#24211d" stroke-width="5" stroke-linecap="round" />
	<circle cx="37" cy="69" r="6" fill="#d8a7a0" opacity="0.78" />
	<circle cx="90" cy="69" r="6" fill="#d8a7a0" opacity="0.78" />
	<path d="M25 94h78" stroke="#9fb5ba" stroke-width="5" stroke-linecap="round" opacity="0.75" />
	<style>
		@media (prefers-color-scheme: dark) {
			rect { fill: #20272c; }
			path:first-of-type { fill: #ece8df; stroke: #101416; }
			path:nth-of-type(2) { fill: #9aaa84; stroke: #101416; }
			path:nth-of-type(3),
			path:nth-of-type(4) { stroke: #101416; }
			circle:nth-of-type(1),
			circle:nth-of-type(2) { fill: #101416; }
		}
	</style>
</svg>
