<svg xmlns="http://www.w3.org/2000/svg" viewBox="0 0 1600 900" role="img" aria-labelledby="title desc">
	<title id="title">冬季本栖湖与富士山星轨横幅</title>
	<desc id="desc">原创温柔动画感插画：冬夜的富士山、本栖湖、星轨和一处小小帐篷灯光。</desc>
	<defs>
		<linearGradient id="sky" x1="0" x2="0" y1="0" y2="1">
			<stop offset="0" stop-color="#22374d"/>
			<stop offset=".42" stop-color="#516f87"/>
			<stop offset=".76" stop-color="#a8b8be"/>
			<stop offset="1" stop-color="#e5ded0"/>
		</linearGradient>
		<linearGradient id="lake" x1="0" x2="0" y1="0" y2="1">
			<stop offset="0" stop-color="#889ca2"/>
			<stop offset=".52" stop-color="#5d747f"/>
			<stop offset="1" stop-color="#1e3446"/>
		</linearGradient>
		<linearGradient id="fuji" x1="0" x2="0" y1="0" y2="1">
			<stop offset="0" stop-color="#fbfaf2"/>
			<stop offset=".34" stop-color="#d9e3e5"/>
			<stop offset=".78" stop-color="#6c8290"/>
			<stop offset="1" stop-color="#394e60"/>
		</linearGradient>
		<linearGradient id="snow" x1="0" x2="0" y1="0" y2="1">
			<stop offset="0" stop-color="#fffaf1"/>
			<stop offset="1" stop-color="#cad9dd"/>
		</linearGradient>
		<radialGradient id="tentGlow" cx="50%" cy="54%" r="54%">
			<stop offset="0" stop-color="#fff0b9" stop-opacity=".95"/>
			<stop offset=".48" stop-color="#e5a34e" stop-opacity=".58"/>
			<stop offset="1" stop-color="#e5a34e" stop-opacity="0"/>
		</radialGradient>
		<filter id="soft" x="-20%" y="-20%" width="140%" height="140%">
			<feGaussianBlur stdDeviation="12"/>
		</filter>
	</defs>

	<rect width="1600" height="900" fill="url(#sky)"/>
	<ellipse cx="810" cy="450" rx="760" ry="270" fill="#f4efe2" opacity=".12"/>
	<g fill="none" stroke-linecap="round" opacity=".62">
		<path d="M334 232c244-184 596-185 844-6" stroke="#fff6da" stroke-width="2.4"/>
		<path d="M260 282c300-235 768-234 1068 0" stroke="#dfeff2" stroke-width="1.6"/>
		<path d="M415 181c210-126 520-128 735-2" stroke="#fff9ec" stroke-width="1.1"/>
		<path d="M514 132c153-70 368-72 523-4" stroke="#c8dde4" stroke-width="1"/>
	</g>
	<g fill="#fffaf0" opacity=".82">
		<circle cx="215" cy="170" r="2.2"/>
		<circle cx="392" cy="116" r="1.5"/>
		<circle cx="560" cy="88" r="2"/>
		<circle cx="786" cy="78" r="1.7"/>
		<circle cx="1048" cy="100" r="2.2"/>
		<circle cx="1220" cy="168" r="1.6"/>
		<circle cx="1390" cy="244" r="1.9"/>
		<circle cx="125" cy="276" r="1.5"/>
	</g>

	<path d="M0 588c206-40 372-34 546-20 182 14 316-34 478-28 206 8 360 58 576 24v336H0Z" fill="url(#lake)"/>
	<path d="M498 564 794 232l328 332Z" fill="url(#fuji)"/>
	<path d="M794 232 692 424l74-34 34 78 38-83 71 36Z" fill="url(#snow)"/>
	<path d="M548 564 794 324l270 240Z" fill="#263f54" opacity=".2"/>
	<path d="M0 552c168-20 284-24 424-8 169 20 308 40 450 10 180-38 346-12 506 12 72 11 148 12 220-1v54c-152 20-268-2-392-20-135-20-282-32-424 4-138 34-272 18-420 1-126-15-240-12-364 10Z" fill="#e8ece8" opacity=".72"/>
	<g opacity=".42">
		<path d="M445 626c214 22 478 22 684-10" stroke="#e9f2ef" stroke-width="2" fill="none"/>
		<path d="M362 687c310 35 598 30 908-8" stroke="#bfd1d5" stroke-width="2" fill="none"/>
		<path d="M180 764c410 38 862 34 1244-14" stroke="#88a3ad" stroke-width="2" fill="none"/>
	</g>

	<path d="M0 718c146-28 248-26 366-15 116 11 248-12 372-23 178-16 322 14 462 20 128 5 252-12 400-42v242H0Z" fill="#e9e3d6"/>
	<path d="M0 747c178-34 326-18 480-18 182 0 330-43 512-30 174 12 352 5 608-52v253H0Z" fill="#d6e0df"/>
	<path d="M0 794c232-28 413-18 616-22 208-4 390-40 984-5v133H0Z" fill="#f5f1e6"/>
	<g opacity=".72">
		<path d="M115 760c48-32 98-50 151-61" stroke="#334f4d" stroke-width="10" stroke-linecap="round"/>
		<path d="M132 776c46-30 91-48 137-58" stroke="#5e7771" stroke-width="6" stroke-linecap="round"/>
		<path d="M1296 698c46 14 84 42 116 80" stroke="#34534f" stroke-width="10" stroke-linecap="round"/>
		<path d="M1324 718c34 13 64 38 89 72" stroke="#708780" stroke-width="6" stroke-linecap="round"/>
	</g>
	<ellipse cx="1164" cy="779" rx="156" ry="72" fill="url(#tentGlow)" filter="url(#soft)"/>
	<path d="M1078 804 1167 685l124 119Z" fill="#d0833c"/>
	<path d="M1167 685 1176 804h-98Z" fill="#f1c174"/>
	<path d="M1176 804h115L1167 685Z" fill="#b96435"/>
	<path d="M1135 804c18-30 42-44 69-50 10 19 14 36 14 50Z" fill="#ffe5a3" opacity=".92"/>
	<path d="M1058 808h252" stroke="#5a4c3f" stroke-width="7" stroke-linecap="round" opacity=".55"/>
	<g fill="#314845" opacity=".48">
		<path d="M1012 800c14-36 32-65 53-86 18 26 35 56 50 90Z"/>
		<path d="M1332 800c16-42 38-76 64-102 26 30 48 65 68 106Z"/>
		<path d="M947 811c8-28 20-50 36-67 16 18 30 40 41 67Z"/>
	</g>
	<rect width="1600" height="900" fill="#fff3d5" opacity=".06"/>
</svg>
